<svg width="600" height="400" viewBox="0 0 600 400" fill="none" xmlns="http://www.w3.org/2000/svg">
  <!-- Background -->
  <rect width="600" height="400" rx="12" fill="#1E293B" />
  
  <!-- Top Bar -->
  <rect x="20" y="20" width="560" height="50" rx="8" fill="#334155" />
  <circle cx="45" cy="45" r="12" fill="#14B8A6" />
  <rect x="70" y="38" width="100" height="14" rx="2" fill="#64748B" />
  
  <!-- Main Content Area -->
  <!-- Graph -->
  <path d="M40 280 L140 200 L240 240 L340 160 L440 120 L540 180" 
        stroke="#14B8A6" stroke-width="3" fill="none" />
  <path d="M40 280 L140 200 L240 240 L340 160 L440 120 L540 180" 
        stroke="#0F766E" stroke-width="12" fill="none" stroke-opacity="0.2" />
  
  <!-- Side Panel -->
  <rect x="440" y="90" width="140" height="290" rx="8" fill="#334155" />
  <rect x="460" y="110" width="100" height="10" rx="2" fill="#64748B" />
  <rect x="460" y="130" width="80" height="10" rx="2" fill="#64748B" />
  <rect x="460" y="160" width="100" height="40" rx="4" fill="#0F766E" />
  <rect x="460" y="210" width="100" height="40" rx="4" fill="#14B8A6" />
  <rect x="460" y="260" width="100" height="40" rx="4" fill="#2DD4BF" />
  
  <!-- Cards -->
  <rect x="20" y="90" width="200" height="120" rx="8" fill="#334155" />
  <circle cx="45" cy="120" r="15" fill="#14B8A6" />
  <rect x="40" y="150" width="160" height="12" rx="2" fill="#64748B" />
  <rect x="40" y="170" width="120" height="12" rx="2" fill="#64748B" />
  
  <rect x="240" y="90" width="180" height="120" rx="8" fill="#334155" />
  <circle cx="265" cy="120" r="15" fill="#0F766E" />
  <rect x="260" y="150" width="140" height="12" rx="2" fill="#64748B" />
  <rect x="260" y="170" width="100" height="12" rx="2" fill="#64748B" />
  
  <!-- Bottom Stats -->
  <rect x="20" y="300" width="400" height="80" rx="8" fill="#334155" />
  <rect x="40" y="320" width="100" height="40" rx="4" fill="#0F766E" />
  <rect x="160" y="320" width="100" height="40" rx="4" fill="#14B8A6" />
  <rect x="280" y="320" width="100" height="40" rx="4" fill="#2DD4BF" />
</svg> 